<?xml version="1.0" encoding="UTF-8"?>
<!DOCTYPE svg PUBLIC "-//W3C//DTD SVG 1.1//EN" "http://www.w3.org/Graphics/SVG/1.1/DTD/svg11.dtd">
<svg xmlns="http://www.w3.org/2000/svg" version="1.1" width="300px" height="300px" style="shape-rendering:geometricPrecision; text-rendering:geometricPrecision; image-rendering:optimizeQuality; fill-rule:evenodd; clip-rule:evenodd" xmlns:xlink="http://www.w3.org/1999/xlink">
<g><path style="opacity:0.86" fill="#fefffe" d="M 142.5,79.5 C 145.315,80.1264 147.815,81.4598 150,83.5C 151.771,82.6959 153.271,81.5292 154.5,80C 155.5,79.3333 156.5,79.3333 157.5,80C 159.311,82.978 161.644,85.478 164.5,87.5C 167.387,85.8892 170.387,84.5559 173.5,83.5C 175.634,84.6935 176.967,86.5268 177.5,89C 180.475,89.0435 183.475,88.8769 186.5,88.5C 186.5,89.5 186.5,90.5 186.5,91.5C 187.978,91.238 189.311,91.5713 190.5,92.5C 191.374,94.7466 191.708,97.0799 191.5,99.5C 194.167,99.5 196.833,99.5 199.5,99.5C 199.5,102.167 199.5,104.833 199.5,107.5C 204.482,106.317 207.482,108.15 208.5,113C 209.448,113.483 210.448,113.649 211.5,113.5C 211.123,116.525 210.956,119.525 211,122.5C 213.473,123.033 215.307,124.366 216.5,126.5C 215.444,129.613 214.111,132.613 212.5,135.5C 215.052,138.549 217.719,141.382 220.5,144C 219.182,145.99 217.848,147.99 216.5,150C 217.304,151.771 218.471,153.271 220,154.5C 220.667,155.5 220.667,156.5 220,157.5C 217.022,159.311 214.522,161.644 212.5,164.5C 214.111,167.387 215.444,170.387 216.5,173.5C 215.307,175.634 213.473,176.967 211,177.5C 210.956,180.475 211.123,183.475 211.5,186.5C 210.448,186.351 209.448,186.517 208.5,187C 206.871,190.966 203.871,192.466 199.5,191.5C 199.5,194.167 199.5,196.833 199.5,199.5C 196.833,199.5 194.167,199.5 191.5,199.5C 192.466,203.871 190.966,206.871 187,208.5C 186.517,209.448 186.351,210.448 186.5,211.5C 183.475,211.123 180.475,210.956 177.5,211C 176.967,213.473 175.634,215.307 173.5,216.5C 170.387,215.444 167.387,214.111 164.5,212.5C 161.451,215.052 158.618,217.719 156,220.5C 154.01,219.182 152.01,217.848 150,216.5C 148.229,217.304 146.729,218.471 145.5,220C 144.5,220.667 143.5,220.667 142.5,220C 140.689,217.022 138.356,214.522 135.5,212.5C 132.613,214.111 129.613,215.444 126.5,216.5C 124.366,215.307 123.033,213.473 122.5,211C 119.525,210.956 116.525,211.123 113.5,211.5C 113.452,208.365 111.785,206.698 108.5,206.5C 107.626,204.253 107.292,201.92 107.5,199.5C 104.833,199.5 102.167,199.5 99.5,199.5C 99.5,196.833 99.5,194.167 99.5,191.5C 97.0799,191.708 94.7466,191.374 92.5,190.5C 91.5713,189.311 91.238,187.978 91.5,186.5C 90.5,186.5 89.5,186.5 88.5,186.5C 88.8769,183.475 89.0435,180.475 89,177.5C 86.5268,176.967 84.6935,175.634 83.5,173.5C 84.5559,170.387 85.8892,167.387 87.5,164.5C 84.9479,161.451 82.2812,158.618 79.5,156C 80.8182,154.01 82.1515,152.01 83.5,150C 82.6959,148.229 81.5292,146.729 80,145.5C 79.3333,144.5 79.3333,143.5 80,142.5C 82.978,140.689 85.478,138.356 87.5,135.5C 85.8892,132.613 84.5559,129.613 83.5,126.5C 84.6935,124.366 86.5268,123.033 89,122.5C 89.0435,119.525 88.8769,116.525 88.5,113.5C 89.5,113.5 90.5,113.5 91.5,113.5C 91.4263,108.18 94.0929,106.18 99.5,107.5C 99.5,104.833 99.5,102.167 99.5,99.5C 102.167,99.5 104.833,99.5 107.5,99.5C 106.18,94.0929 108.18,91.4263 113.5,91.5C 113.5,90.5 113.5,89.5 113.5,88.5C 116.525,88.8769 119.525,89.0435 122.5,89C 123.033,86.5268 124.366,84.6935 126.5,83.5C 129.613,84.5559 132.613,85.8892 135.5,87.5C 138.573,85.4309 140.906,82.7642 142.5,79.5 Z M 143.5,84.5 C 144.627,85.1217 145.627,85.955 146.5,87C 140.57,91.5685 139.57,90.7352 143.5,84.5 Z M 155.5,84.5 C 160.742,90.4231 160.076,91.2564 153.5,87C 154.381,86.2917 155.047,85.4584 155.5,84.5 Z M 127.5,88.5 C 129.593,89.0447 131.593,89.878 133.5,91C 131.158,92.7454 128.825,92.5787 126.5,90.5C 126.863,89.8165 127.196,89.1499 127.5,88.5 Z M 170.5,88.5 C 173.315,88.7826 173.815,89.7826 172,91.5C 169.972,92.9679 168.138,92.8013 166.5,91C 168.066,90.3918 169.4,89.5585 170.5,88.5 Z M 149.5,89.5 C 154.364,90.964 154.531,92.6307 150,94.5C 148.745,93.7894 147.579,92.956 146.5,92C 147.942,91.6232 148.942,90.7899 149.5,89.5 Z M 115.5,96.5 C 118.957,96.6672 119.29,97.6672 116.5,99.5C 115.614,98.675 115.281,97.675 115.5,96.5 Z M 181.5,96.5 C 182.5,96.5 183.5,96.5 184.5,96.5C 183.754,100.31 182.754,100.31 181.5,96.5 Z M 123.5,97.5 C 124.756,97.4614 125.756,97.9614 126.5,99C 125.167,99.6667 123.833,99.6667 122.5,99C 123.056,98.6174 123.389,98.1174 123.5,97.5 Z M 173.5,97.5 C 175.103,97.3118 176.437,97.8118 177.5,99C 175.537,99.8442 174.204,99.3442 173.5,97.5 Z M 102.5,102.5 C 107.467,102.584 107.8,103.918 103.5,106.5C 102.571,105.311 102.238,103.978 102.5,102.5 Z M 114.5,102.5 C 117.001,102.511 117.168,103.178 115,104.5C 114.536,103.906 114.369,103.239 114.5,102.5 Z M 145.5,102.5 C 175.668,104.005 192.668,119.671 196.5,149.5C 193.833,178.167 178.167,193.833 149.5,196.5C 121.557,193.223 105.89,177.557 102.5,149.5C 106.114,123.891 120.447,108.224 145.5,102.5 Z M 183.5,103.5 C 184.077,102.227 184.743,102.227 185.5,103.5C 185.03,104.463 184.363,104.463 183.5,103.5 Z M 192.5,102.5 C 193.833,102.5 195.167,102.5 196.5,102.5C 195.759,107.503 194.426,107.503 192.5,102.5 Z M 194.5,113.5 C 195.289,113.783 195.956,114.283 196.5,115C 195.184,115.528 194.517,115.028 194.5,113.5 Z M 102.5,114.5 C 105.001,114.511 105.168,115.178 103,116.5C 102.536,115.906 102.369,115.239 102.5,114.5 Z M 96.5,115.5 C 99.9571,115.667 100.29,116.667 97.5,118.5C 96.6143,117.675 96.281,116.675 96.5,115.5 Z M 199.5,115.5 C 200.5,115.5 201.5,115.5 202.5,115.5C 202.193,118.962 201.193,118.962 199.5,115.5 Z M 98.5,122.5 C 99.5983,123.601 99.765,124.934 99,126.5C 97.2317,125.318 97.0651,123.985 98.5,122.5 Z M 199.5,122.5 C 201.465,122.948 201.798,123.948 200.5,125.5C 199.614,124.675 199.281,123.675 199.5,122.5 Z M 89.5,126.5 C 92.3769,128.302 92.8769,130.636 91,133.5C 89.1715,131.267 88.6715,128.933 89.5,126.5 Z M 208.5,126.5 C 209.995,126.415 210.995,127.081 211.5,128.5C 208.109,134.817 207.109,134.15 208.5,126.5 Z M 88.5,140.5 C 89.2891,140.783 89.9558,141.283 90.5,142C 89.2125,143.41 88.0458,144.91 87,146.5C 86.1667,145.667 85.3333,144.833 84.5,144C 86.3237,143.34 87.657,142.173 88.5,140.5 Z M 210.5,140.5 C 212.01,141.836 213.677,143.003 215.5,144C 214.667,144.833 213.833,145.667 213,146.5C 211.094,144.592 210.26,142.592 210.5,140.5 Z M 91.5,146.5 C 95.0974,148.595 95.2641,150.928 92,153.5C 91.5348,152.069 90.7014,150.903 89.5,150C 90.8228,149.184 91.4894,148.017 91.5,146.5 Z M 207.5,146.5 C 208.364,147.688 209.364,148.855 210.5,150C 209.299,150.903 208.465,152.069 208,153.5C 204.934,151.304 204.767,148.97 207.5,146.5 Z M 86.5,153.5 C 87.9335,154.833 89.2668,156.333 90.5,158C 90,158.5 89.5,159 89,159.5C 87.786,157.951 86.286,156.785 84.5,156C 85.3805,155.292 86.0472,154.458 86.5,153.5 Z M 212.5,153.5 C 213.627,154.122 214.627,154.955 215.5,156C 209.61,160.608 208.61,159.775 212.5,153.5 Z M 90.5,166.5 C 92.8596,168.59 92.8596,170.923 90.5,173.5C 89.5,173.167 88.8333,172.5 88.5,171.5C 89.4565,169.925 90.1231,168.258 90.5,166.5 Z M 208.5,166.5 C 209.725,167.937 210.725,169.604 211.5,171.5C 211.167,172.5 210.5,173.167 209.5,173.5C 207.636,171.288 207.303,168.955 208.5,166.5 Z M 97.5,173.5 C 99.3442,174.204 99.8442,175.537 99,177.5C 97.8118,176.437 97.3118,175.103 97.5,173.5 Z M 200.5,173.5 C 201.782,174.708 201.782,176.042 200.5,177.5C 199.374,176.192 199.374,174.858 200.5,173.5 Z M 96.5,181.5 C 100.31,182.754 100.31,183.754 96.5,184.5C 96.5,183.5 96.5,182.5 96.5,181.5 Z M 201.5,181.5 C 202.404,182.209 202.737,183.209 202.5,184.5C 198.995,184.306 198.662,183.306 201.5,181.5 Z M 102.5,183.5 C 103.289,183.783 103.956,184.283 104.5,185C 103.184,185.528 102.517,185.028 102.5,183.5 Z M 194.5,184.5 C 197.001,184.511 197.168,185.178 195,186.5C 194.536,185.906 194.369,185.239 194.5,184.5 Z M 102.5,192.5 C 107.503,194.426 107.503,195.759 102.5,196.5C 102.5,195.167 102.5,193.833 102.5,192.5 Z M 194.5,192.5 C 196.176,193.183 196.843,194.517 196.5,196.5C 192.155,196.702 191.488,195.369 194.5,192.5 Z M 113.5,195.5 C 114.077,194.227 114.743,194.227 115.5,195.5C 115.03,196.463 114.363,196.463 113.5,195.5 Z M 184.5,194.5 C 187.001,194.511 187.168,195.178 185,196.5C 184.536,195.906 184.369,195.239 184.5,194.5 Z M 115.5,199.5 C 118.962,201.193 118.962,202.193 115.5,202.5C 115.5,201.5 115.5,200.5 115.5,199.5 Z M 122.5,199.5 C 123.675,199.281 124.675,199.614 125.5,200.5C 123.948,201.798 122.948,201.465 122.5,199.5 Z M 174.5,199.5 C 175.675,199.281 176.675,199.614 177.5,200.5C 176.277,201.614 174.944,201.781 173.5,201C 174.056,200.617 174.389,200.117 174.5,199.5 Z M 182.5,199.5 C 184.048,199.821 184.715,200.821 184.5,202.5C 183.448,202.649 182.448,202.483 181.5,202C 182.252,201.329 182.586,200.496 182.5,199.5 Z M 149.5,205.5 C 150.973,206.072 152.307,206.905 153.5,208C 152.069,208.465 150.903,209.299 150,210.5C 149.097,209.299 147.931,208.465 146.5,208C 147.571,207.148 148.571,206.315 149.5,205.5 Z M 129.5,207.5 C 131.103,207.312 132.437,207.812 133.5,209C 131.833,209.833 130.167,210.667 128.5,211.5C 127.5,211.167 126.833,210.5 126.5,209.5C 127.602,208.824 128.602,208.158 129.5,207.5 Z M 167.5,207.5 C 169.696,207.565 171.696,208.232 173.5,209.5C 173.167,210.5 172.5,211.167 171.5,211.5C 169.833,210.667 168.167,209.833 166.5,209C 167.056,208.617 167.389,208.117 167.5,207.5 Z M 141.5,209.5 C 143.138,210.657 144.804,211.824 146.5,213C 145.667,213.833 144.833,214.667 144,215.5C 143.215,213.714 142.049,212.214 140.5,211C 141.056,210.617 141.389,210.117 141.5,209.5 Z M 157.5,209.5 C 158.289,209.783 158.956,210.283 159.5,211C 157.951,212.214 156.785,213.714 156,215.5C 155.167,214.667 154.333,213.833 153.5,213C 155.093,212.051 156.426,210.885 157.5,209.5 Z"/></g>
</svg>
